<svg xmlns="http://www.w3.org/2000/svg" xmlns:xlink="http://www.w3.org/1999/xlink" preserveAspectRatio="xMidYMid" width="16" height="16" viewBox="0 0 16 16">
  <defs>
    <style>
      .cls-1, .cls-7 {
        fill: #fff;
      }

      .cls-2 {
        fill: #efefef;
      }

      .cls-14, .cls-3, .cls-4, .cls-5, .cls-7, .cls-8 {
        font-size: 13px;
      }

      .cls-18, .cls-22, .cls-4, .cls-5, .cls-6 {
        fill: #0299e7;
      }

      .cls-21, .cls-4, .cls-5, .cls-7 {
        font-family: "GothamPro-Bold";
        font-weight: bold;
      }

      .cls-4, .cls-5, .cls-7 {
        text-transform: uppercase;
      }

      .cls-5 {
        text-anchor: end;
      }

      .cls-12, .cls-19, .cls-8 {
        fill: #2a2b2f;
      }

      .cls-16, .cls-8 {
        font-family: "GothamPro-Medium";
      }

      .cls-10, .cls-12, .cls-9 {
        font-size: 15px;
      }

      .cls-10, .cls-13, .cls-14, .cls-16 {
        fill: #9b9eab;
      }

      .cls-10, .cls-12, .cls-14 {
        font-family: "GothamPro";
      }

      .cls-11 {
        stroke: #efefef;
        stroke-width: 2px;
        fill: none;
      }

      .cls-13, .cls-19, .cls-22 {
        fill-rule: evenodd;
      }

      .cls-15, .cls-16 {
        font-size: 12px;
      }

      .cls-17, .cls-18 {
        font-size: 26px;
      }

      .cls-18 {
        font-family: "Entypo";
      }

      .cls-20, .cls-21 {
        font-size: 35.908px;
      }

      .cls-21 {
        fill: #393a3e;
      }
    </style>
  </defs>
  <g id="artboard-1">
    <g>
      <rect x="-330" y="-454" width="1160" height="735" class="cls-1"/>
      <g>
        <rect x="-270" y="-308" width="1040" height="1" class="cls-2"/>
        <g>
          <text x="202" y="169" class="cls-3"><tspan class="cls-4">Отменить</tspan></text>
          <text x="-42" y="169" class="cls-3"><tspan class="cls-5">Назад</tspan></text>
          <rect y="140" width="160" height="50" rx="2" ry="2" class="cls-6"/>
          <text x="26" y="169" class="cls-3"><tspan class="cls-7">Продолжить</tspan></text>
        </g>
        <g>
          <text x="-270" y="65" class="cls-3"><tspan class="cls-8">Адрес доставки:</tspan></text>
          <text x="19" y="65" class="cls-9"><tspan class="cls-10">Улица, дом, квартира</tspan></text>
          <rect y="50" width="499" height="42" rx="2" ry="2" class="cls-11"/>
        </g>
        <g>
          <text x="254" y="2" class="cls-9"><tspan class="cls-12">Требуется установка</tspan></text>
          <rect x="227" width="16" height="16" rx="2" ry="2" class="cls-11"/>
          <text x="27" y="2" class="cls-9"><tspan class="cls-12">Требуется доставка</tspan></text>
        </g>
        <g>
          <g>
            <rect y="-76" width="499" height="42" rx="2" ry="2" class="cls-11"/>
            <rect x="9" y="-67" width="108" height="24" rx="2" ry="2" class="cls-2"/>
            <path d="M106.545,-51.351 L107.539,-52.345 L104.772,-55.112 L107.566,-57.907 L106.599,-58.874 L103.804,-56.080 L101.037,-58.847 L100.043,-57.853 L102.810,-55.086 L100.016,-52.291 L100.984,-51.324 L103.778,-54.118 L106.545,-51.351 Z" class="cls-13"/>
            <text x="19" y="-60" class="cls-3"><tspan class="cls-14">rekviziti.doc</tspan></text>
            <text x="-270" y="-61" class="cls-3"><tspan class="cls-8">Реквизиты:</tspan></text>
            <text x="402" y="-51" class="cls-15"><tspan class="cls-16">Прикрепить</tspan></text>
            <text transform="translate(379 -49)" class="cls-17"><tspan class="cls-18">📎</tspan></text>
          </g>
          <g>
            <rect y="-139" width="230" height="42" rx="2" ry="2" class="cls-11"/>
            <text x="19" y="-124" class="cls-9"><tspan class="cls-10">123456789012</tspan></text>
            <rect x="270" y="-139" width="229" height="42" rx="2" ry="2" class="cls-11"/>
            <path d="M245.864,-111.119 L248.329,-111.119 L255.420,-125.941 L252.955,-125.941 L245.864,-111.119 Z" class="cls-19"/>
            <text x="289" y="-124" class="cls-9"><tspan class="cls-10">123456789</tspan></text>
            <text x="-270" y="-124" class="cls-3"><tspan class="cls-8">ИНН/КПП:</tspan></text>
          </g>
          <g>
            <text x="-270" y="-187" class="cls-3"><tspan class="cls-8">Наименование:</tspan></text>
            <text x="19" y="-187" class="cls-9"><tspan class="cls-10">ООО “Название компании”</tspan></text>
            <rect y="-202" width="499" height="42" rx="2" ry="2" class="cls-11"/>
          </g>
          <g>
            <text x="-270" y="-250" class="cls-3"><tspan class="cls-8">Выберите вариант:</tspan></text>
            <g>
              <text x="222" y="-250" class="cls-9"><tspan class="cls-12">Юридическое лицо</tspan></text>
              <circle cx="211" cy="-244" r="8" class="cls-11"/>
            </g>
            <g>
              <text x="19" y="-250" class="cls-9"><tspan class="cls-12">Физическое лицо</tspan></text>
              <circle cx="8" cy="-244" r="8" class="cls-11"/>
              <circle cx="211" cy="-244" r="4" class="cls-6"/>
            </g>
          </g>
        </g>
      </g>
      <text transform="translate(-273 -376)" class="cls-20"><tspan class="cls-21">Оформление заказа</tspan></text>
    </g>
    <rect width="16" height="16" rx="2" ry="2" class="cls-11"/>
    <path d="M6.962,12.141 C6.962,12.141 6.986,12.141 6.986,12.117 C7.274,12.117 7.514,11.973 7.658,11.733 L11.859,5.013 C12.099,4.605 11.979,4.101 11.594,3.861 C11.186,3.621 10.682,3.741 10.442,4.125 L6.890,9.813 L5.474,7.965 C5.186,7.581 4.658,7.509 4.298,7.797 C3.938,8.085 3.866,8.589 4.130,8.973 L6.290,11.805 C6.434,11.997 6.698,12.141 6.962,12.141 Z" class="cls-22"/>
  </g>
</svg>
